<svg id="Layer_35" enable-background="new 0 0 64 64" height="512" viewBox="0 0 64 64" width="512" xmlns="http://www.w3.org/2000/svg"><path d="m15.354 17.291 1.732 6.928-4.086 5.448-4.085-5.447 1.732-6.928c-4.381 1.062-7.647 5.006-7.647 9.708v9c0 1.654 1.346 3 3 3v-14h2v34c0 1.103.897 2 2 2s2-.897 2-2v-22h2v22c0 1.103.897 2 2 2s2-.897 2-2v-34h2v14c1.654 0 3-1.346 3-3v-9c0-4.702-3.266-8.646-7.646-9.709z"/><path d="m30 31h2v2h-2z"/><path d="m38 29h2v2h-2z"/><circle cx="13" cy="9" r="6"/><path d="m12.778 17.011-1.693 6.77 1.915 2.552 1.915-2.553-1.693-6.77c-.075 0-.147-.01-.222-.01s-.147.01-.222.011z"/><path d="m46 35h2v2h-2z"/><path d="m60 21h-34c-.551 0-1 .449-1 1v5 9 6c0 .551.449 1 1 1h34c.551 0 1-.449 1-1v-20c0-.551-.449-1-1-1zm-26 14h-2v6h-2v-6h-2v-6h2v-6h2v6h2zm8-2h-2v8h-2v-8h-2v-6h2v-4h2v4h2zm8 6h-2v2h-2v-2h-2v-6h2v-10h2v10h2zm8-8h-2v10h-2v-10h-2v-6h2v-2h2v2h2z"/><path d="m54 27h2v2h-2z"/><path d="m50 16h6v-7h1.796l-4.796-5.481-4.796 5.481h1.796z"/><path d="m30 16h6v-7h1.796l-4.796-5.481-4.796 5.481h1.796z"/><path d="m56 48h-6v7h-1.796l4.796 5.481 4.796-5.481h-1.796z"/><path d="m36 48h-6v7h-1.796l4.796 5.481 4.796-5.481h-1.796z"/></svg>