<svg id="Layer_35" enable-background="new 0 0 64 64" height="512" viewBox="0 0 64 64" width="512" xmlns="http://www.w3.org/2000/svg"><path d="m12.633 15-.58 4.639.947.947.947-.947-.58-4.639h-.367z"/><circle cx="13" cy="8" r="5"/><path d="m29 13.993v-7.493c0-.827-.673-1.5-1.5-1.5s-1.5.673-1.5 1.5v5c0 1.93-1.57 3.5-3.5 3.5h-7.117l.67 5.361-3.053 3.053-3.053-3.053.655-5.241c-4.299.675-7.602 4.394-7.602 8.88v7c0 1.103.897 2 2 2h1v-11h2v27c0 1.103.897 2 2 2s2-.897 2-2v-18h2v18c0 1.103.897 2 2 2s2-.897 2-2v-25.914c0-1.693 1.208-3.141 2.874-3.443l4.021-.731c2.378-.433 4.105-2.502 4.105-4.919z"/><circle cx="51" cy="36" r="5"/><path d="m52 43h-10.5c-1.93 0-3.5-1.57-3.5-3.5v-5c0-.827-.673-1.5-1.5-1.5s-1.5.673-1.5 1.5v7.493c0 2.417 1.727 4.487 4.106 4.919l4.02.731c1.666.302 2.874 1.751 2.874 3.443v9.914h10v-11h2v11h3v-9c0-4.962-4.038-9-9-9z"/><path d="m40 34.75v2.5l4.414 1.104c-.263-.737-.414-1.527-.414-2.354s.151-1.617.414-2.354z"/><path d="m24 9.25v-2.5l-4.414-1.104c.263.737.414 1.527.414 2.354s-.151 1.617-.414 2.354z"/><path d="m58 7h-27v2h27c1.654 0 3 1.346 3 3s-1.346 3-3 3h-11c-2.757 0-5 2.243-5 5v4c0 1.654-1.346 3-3 3h-12c-2.757 0-5 2.243-5 5s2.243 5 5 5h6v-2h-6c-1.654 0-3-1.346-3-3s1.346-3 3-3h12c2.757 0 5-2.243 5-5v-4c0-1.654 1.346-3 3-3h11c2.757 0 5-2.243 5-5s-2.243-5-5-5z"/></svg>