<svg id="_x33_0" enable-background="new 0 0 64 64" height="512" viewBox="0 0 64 64" width="512" xmlns="http://www.w3.org/2000/svg"><g><path d="m33.035 35.081c-.018-.288-.035-.577-.035-.862v-9.219h-.733c-.328.837-.754 1.623-1.267 2.346v6.872c0 .167.014.33.019.496z"/><path d="m31.031 16.831c0-1.396-.744-2.711-1.942-3.43l-.778-.467c-.8 1.239-2.185 2.066-3.767 2.066h-11.513v6c0 4.962 4.037 9 9 9s9-4.038 9-9zm-16 3.169c0-1.654 1.346-3 3-3s3 1.346 3 3h-2c0-.551-.448-1-1-1s-1 .449-1 1zm11.897 4.473c-.703 2.109-2.671 3.527-4.897 3.527s-4.194-1.418-4.897-3.53l-.052-.156 1.898-.627.051.154c.431 1.291 1.637 2.16 3 2.16s2.568-.869 3-2.162l.052-.157 1.896.638zm.103-4.473c0-.551-.448-1-1-1s-1 .449-1 1h-2c0-1.654 1.346-3 3-3s3 1.346 3 3z"/><path d="m28.398 36.271-1.182-.215-3.437 2.061 2.851 2.281z"/><path d="m45 46.557v-25.982c-2.501 1.133-5.271 1.868-8.41 2.213-.355.704-.907 1.282-1.59 1.672v9.758c0 .41.029.825.072 1.239 2.276.45 4.323 1.685 5.773 3.498 1.389 1.738 2.155 3.919 2.155 6.143v.709z"/><path d="m25.884 34.522-.602-3.013c-1.028.319-2.119.491-3.251.491-1.142 0-2.244-.176-3.281-.5l-.601 3.005 3.881 2.329z"/><path d="m35.031 21c0-1.103-.897-2-2-2v2c0 .684-.071 1.35-.191 2h.191c1.103 0 2-.897 2-2z"/><path d="m15.661 36.266 1.772 4.132 2.851-2.281-3.444-2.066z"/><path d="m35.029 61h5.971v-6h-5.986z"/><path d="m3.031 55v6h5.998l-.015-6z"/><path d="m34.569 37.393-4.152-.755-2.984 6.964-5.401-4.321-5.401 4.321-2.987-6.969-4.182.76c-1.858.338-3.533 1.337-4.714 2.813-1.106 1.383-1.716 3.121-1.716 4.892v7.902h5.978l-.01-3.998 2-.005.029 12.003h22l-.029-11.998 2-.005.01 4.003h5.99v-7.902c0-1.771-.609-3.509-1.717-4.893-1.179-1.475-2.854-2.474-4.714-2.812z"/><path d="m57 34.219v-11.272c-3.796-.253-7.089-1.027-10-2.343v25.953l2.214-.83c4.584-1.719 7.786-6.451 7.786-11.508z"/><path d="m59.211 19c-4.695 0-9.249-1.315-13.211-3.809-2.932 1.842-6.249 3.051-9.676 3.546.393.57.626 1.249.678 1.978 3.228-.419 6.043-1.255 8.522-2.595l.476-.257.476.257c3.221 1.741 7.005 2.684 11.567 2.881l.957.041v13.176c0 5.873-3.735 11.375-9.084 13.381l-3.916 1.469-3-1.125v1.864l3 1.125 4.617-1.732c6.211-2.328 10.383-8.349 10.383-14.981v-15.219z"/><path d="m11.031 23h.191c-.12-.65-.191-1.316-.191-2v-2c-1.103 0-2 .897-2 2s.898 2 2 2z"/><path d="m11.031 14.925c-.718-.1-1.4-.309-2.031-.61v.449c0 .874.148 1.749.414 2.584.496-.22 1.041-.348 1.617-.348z"/><path d="m12 13h12.544c1.371 0 2.487-1.116 2.487-2.487 0-1.072-.684-2.021-1.701-2.359l-.615-.205.633-1.897.615.205c1.835.612 3.068 2.323 3.068 4.257 0 .168-.032.328-.05.491l1.137.682c1.797 1.079 2.913 3.05 2.913 5.145v.168c.495 0 .965.102 1.403.267l.282-1.128c.209-.838.315-1.701.315-2.564 0-5.831-4.744-10.575-10.575-10.575h-.578c-1.138 0-2.263.183-3.345.542l-1.89.631c.224.567.357 1.181.357 1.827 0 2.757-2.243 5-5 5-1.654 0-3-1.346-3-3s1.346-3 3-3h1v2h-1c-.552 0-1 .449-1 1s.448 1 1 1c1.654 0 3-1.346 3-3s-1.346-3-3-3h-2c-2.757 0-5 2.243-5 5s2.243 5 5 5z"/></g></svg>