<svg height="512" viewBox="0 0 512 512" width="512" xmlns="http://www.w3.org/2000/svg"><g id="Solid"><path d="m170.434 174.34-8.913 6.97a20.284 20.284 0 0 0 24.991 31.957l.7-.544 8.217-6.426a20.284 20.284 0 0 0 -24.991-31.957z"/><path d="m246.397 182.149h17.941v17.941h-17.941z" transform="matrix(.788 -.616 .616 .788 -63.527 197.87)"/><path d="m102.357 397.926 13.39 30.318 4.253-2.344v-25.9a8 8 0 0 1 3.2-6.4l22.4-16.8a16.079 16.079 0 0 0 6.4-12.8v-36a8 8 0 0 1 3.562-6.656l24-16a7.993 7.993 0 0 1 4.438-1.344h32a8 8 0 0 1 7.94 7.027l6.6 53.882 41.46-22.873v-4.531l-15.635 2.708a8 8 0 0 1 -9.312-6.962l-4.58-39.51a16.078 16.078 0 0 0 -15.593-14.153l-44.547-.784-62.533 43.233 8.009 36.236a8.005 8.005 0 0 1 -1.338 6.426z"/><path d="m216.4 156 8.638 27.142 1.583-1.238 26.733-20.904a8 8 0 0 1 11.23 1.373l20.908 26.736a8 8 0 0 1 -1.373 11.23l-26.737 20.909-15.582 12.18 62.812 46.572h78.776l63.8-47.308 24.412-76.692-24.41-76.692-63.802-47.308h-78.776l-63.8 47.308zm233.82-14.427 3.821 12a8.011 8.011 0 0 1 0 4.854l-19.749 62.029a8 8 0 0 1 -2.859 4l-18.668 13.844-9.53-12.853 16.594-12.3 18.193-57.147-3.048-9.573zm-37.63-68 18.843 13.971a8 8 0 0 1 2.859 4l8.287 26.029-15.246 4.854-7.5-23.568-16.772-12.433zm-3.594 44 5.094 16-15.246 4.854-5.094-16zm-16.525 76.016 8.92-28.016 15.246 4.854-9.7 30.477a8 8 0 0 1 -2.859 4l-7.31 5.421-9.53-12.853zm4.294 56.571-16.543 12.266a8 8 0 0 1 -4.765 1.574h-31.457v-16h28.815l14.42-10.692zm-28.765-106.16h16v16h-16zm-40-88h16v16h-16zm-4.888 160h39.134l8.989-6.666 9.53 12.853-11.113 8.239a8 8 0 0 1 -4.764 1.574h-41.776zm-35.112 0h16v16h-16zm-32-112h16v16h-16z"/><path d="m174.422 128.146-40.794 31.979a88.176 88.176 0 0 0 -31.207 90.092l13.429 55.1 69.476-48.035 55.9-43.714-11.052-14.132-56.083 43.858a8 8 0 0 1 -11.23-1.374l-34.848-44.561a8 8 0 0 1 1.374-11.23l56.083-43.858-2.087-2.668z"/><path d="m187.02 118.282 5.526 7.067 5.526 7.066 14.133-11.052-11.052-14.133z"/><path d="m480 245.551-424.939 234.449h424.939zm-107.865 83.72 7.73 14.009-16 8.828-7.73-14.009zm-29 16 7.73 14.009-43 23.724-7.73-14.004zm-179.304 118.479-7.662-14.05 16-8.727 7.662 14.046zm56-32-7.662-14.05 16-8.727 7.662 14.046zm40 31.273-7.662-14.046 58.666-32 7.663 14.046zm96 8-7.662-14.046 88-48 7.662 14.046zm48-88-7.662-14.046 44-24 7.662 14.046zm40-64-7.662-14.046 16-8.727 7.662 14.046z"/></g></svg>