<svg id="_x33_0" enable-background="new 0 0 64 64" height="512" viewBox="0 0 64 64" width="512" xmlns="http://www.w3.org/2000/svg"><g><path d="m53.291 14.454.548 2.742c.094.468.504.804.981.804h2.36c.477 0 .887-.336.981-.804l.548-2.742c2.518-1.062 4.291-3.555 4.291-6.454 0-3.859-3.14-7-7-7s-7 3.141-7 7c0 2.899 1.773 5.392 4.291 6.454zm2.709-8.454c1.105 0 2 .895 2 2 0 .738-.405 1.376-1 1.723v3.5h-2v-3.5c-.595-.347-1-.985-1-1.723 0-1.105.895-2 2-2z"/><path d="m49.574 25.15-1.146-2.37.091-.233 2.481-.818v-2.73c0-.726 0-.726-2.48-1.545l-.109-.263 1.163-2.342-2.423-2.424-2.371 1.147-.234-.092-.816-2.48h-3.46l-.86 2.493-.218.097-2.343-1.164-2.423 2.424 1.146 2.37-.091.233-2.481.818v3.459l2.491.853.099.227-1.163 2.342 2.423 2.424 2.371-1.147.234.092.59 1.793c.229.686.229.686 2.962.688l.725.001.86-2.494.218-.097 2.343 1.164zm-7.574-3.15c-1.1 0-2-.9-2-2s.9-2 2-2 2 .9 2 2-.9 2-2 2z"/><path d="m33 7h14v2h-14z"/><path d="m25 7h6v2h-6z"/><path d="m23 19h8v2h-8z"/><path d="m18.236 19h.764v-2h1.97c-.18-3.037-1.138-5.439-1.87-6.873-.906.55-1.965.873-3.1.873h-2.893c-.271 0-.534-.042-.788-.105l-1.642 4.105h-.677c-.551 0-1 .448-1 1 0 .378.147.732.415 1l1.656 1.657-.92 5.521.229.038c1.278.213 2.494.614 3.62 1.179v-2.395h1c1.474 0 2.75-.81 3.444-2h-.208c-1.76 0-3.343-.979-4.13-2.553l1.789-.895c.446.893 1.343 1.448 2.341 1.448z"/><path d="m8.6 21.318.329-1.975-.929-.929c-.645-.645-1-1.503-1-2.414 0-1.409.977-2.595 2.289-2.915l1.313-3.284c-.203-.262-.363-.556-.462-.877-.29-.944-.127-1.931.446-2.706.564-.763 1.466-1.218 2.414-1.218h1v2h-1c-.321 0-.614.148-.805.407-.113.152-.281.477-.142.931.117.384.561.662 1.054.662h2.893c2.206 0 4-1.794 4-4v-2h-6.895c-2.952 0-5.747 1.285-7.668 3.526-1.572 1.833-2.437 4.173-2.437 6.589v.406c0 1.919.835 3.734 2.292 4.982z"/><path d="m10.051 26.188-.268-.044 3.191 2.554 1.102-.958c-1.207-.775-2.567-1.308-4.025-1.552z"/><path d="m19 39v-2.248c0-2.244-.69-4.396-1.995-6.225-.398-.557-.845-1.066-1.329-1.529l-2.65 2.303-5.416-4.336c-1.622 1.295-2.61 3.26-2.61 5.42v18.615h4v-15.838c0-1.46-.931-2.751-2.316-3.214l.633-1.896c2.203.734 3.683 2.788 3.683 5.11v15.838h4v-14h2v2z"/><path d="m55 38h-2v-1c0-2.206-1.794-4-4-4s-4 1.794-4 4v14c0 2.206 1.794 4 4 4s4-1.794 4-4v-1h2c3.309 0 6-2.691 6-6s-2.691-6-6-6zm-7 11c-.552 0-1-.448-1-1s.448-1 1-1 1 .448 1 1-.448 1-1 1zm0-4c-.552 0-1-.448-1-1s.448-1 1-1 1 .448 1 1-.448 1-1 1zm0-4c-.552 0-1-.448-1-1s.448-1 1-1 1 .448 1 1-.448 1-1 1zm7 6c-1.657 0-3-1.343-3-3s1.343-3 3-3 3 1.343 3 3-1.343 3-3 3z"/><path d="m13 55.204c0 1.428-.762 2.719-2 3.41v.386c0 .732-.212 1.409-.556 2h4.556v-3.586c0-1.179.459-2.287 1.292-3.121l1.415 1.414c-.456.456-.707 1.063-.707 1.707v3.586h2v-8h-6.685c.443.644.685 1.405.685 2.204z"/><path d="m17 41h26v6h-26z"/><path d="m17 49h2v2h-2z"/><path d="m10.442 53.855-.856-.855h-4.586v6c0 1.103.897 2 2 2s2-.897 2-2v-1.619l.947-.472c.649-.325 1.053-.978 1.053-1.705 0-.51-.198-.988-.558-1.349z"/></g></svg>