<?xml version="1.0" encoding="UTF-8"?>
<svg xmlns="http://www.w3.org/2000/svg" width="512" height="512" viewBox="0 0 512 512"><g id="Solid"><g><path d="M76,168H88V128H76a12.013,12.013,0,0,0-12,12v16A12.013,12.013,0,0,0,76,168Z"/><path d="M177.14,75.884a8,8,0,0,1,13.72,0L212.529,112H240V84a52.059,52.059,0,0,0-52-52H132A52.059,52.059,0,0,0,80,84v28h75.471Z"/><path d="M232,168h12a12.013,12.013,0,0,0,12-12V140a12.013,12.013,0,0,0-12-12H232Z"/><path d="M264,208a31.747,31.747,0,0,0-12.168-25.115A27.934,27.934,0,0,1,244,184H232v7.545a37.818,37.818,0,0,1-20.833,33.9l-15.2,7.695,14.96,39.893.422-.913L262.428,295.7a129.1,129.1,0,0,1,24.341-26.546,48.278,48.278,0,0,0-25.029-31.957,8,8,0,0,1-3.04-11.548A31.84,31.84,0,0,0,264,208Z"/><path d="M123.23,287.917a52.061,52.061,0,0,0,73.54,0l1.93-1.931-17.089-45.573-9.018,4.567a28.12,28.12,0,0,1-25.172.064l-9.068-4.534L121.3,285.986Z"/><path d="M165.365,230.706l38.573-19.534A21.894,21.894,0,0,0,216,191.545V128h-8a8,8,0,0,1-6.86-3.884L184,95.549l-17.14,28.567A8,8,0,0,1,160,128H104v63.848a21.881,21.881,0,0,0,12.162,19.678l38.415,19.207A12.057,12.057,0,0,0,165.365,230.706ZM184,144h16v16H184Zm-64,0h16v16H120Zm16,48h16c0,1.41,3.037,4,8,4s8-2.59,8-4h16c0,11.215-10.542,20-24,20S136,203.215,136,192Z"/><path d="M448,368a80,80,0,1,0-80,80A80.091,80.091,0,0,0,448,368ZM328,416V400h52a12,12,0,0,0,0-24H356a28,28,0,0,1,0-56h4V304h16v16h32v16H356a12,12,0,0,0,0,24h24a28,28,0,0,1,0,56h-4v16H360V416Z"/><path d="M288,440H256v40h79.333A48.078,48.078,0,0,0,288,440Z"/><path d="M368,256a112.032,112.032,0,0,0-97.018,168H288q1.05,0,2.092.034a95.779,95.779,0,1,1,56.169,37.483,63.488,63.488,0,0,1,5.075,17.252A113.446,113.446,0,0,0,368,480a112,112,0,0,0,0-224Z"/><path d="M109.571,271.7l14.392-38.38-14.957-7.479A37.792,37.792,0,0,1,88,191.848V184H76a27.934,27.934,0,0,1-7.832-1.115A32.009,32.009,0,0,0,61.3,225.644a8,8,0,0,1-3.04,11.548,48.047,48.047,0,0,0-19.6,67.231Z"/><rect x="216" y="440" width="24" height="40"/><path d="M215.187,291.513a7.979,7.979,0,0,1-1.53,2.144l-5.573,5.573a68.079,68.079,0,0,1-96.168,0l-5.573-5.573a8.005,8.005,0,0,1-1.531-2.144L38.972,321.9A12.036,12.036,0,0,0,32,332.8V468a12.013,12.013,0,0,0,12,12H200V440H88a8,8,0,0,1-8-8V384H96v40H252.872a128.051,128.051,0,0,1,1.294-114.5Z"/><path d="M384,140.4l43.08-45.217a19.379,19.379,0,0,0-.055-26.015,15.307,15.307,0,0,0-22.853,0c-.107.114-.217.226-.33.333l-14.35,13.662a8,8,0,0,1-11.043-.01l-14.3-13.661q-.164-.157-.32-.324a15.307,15.307,0,0,0-22.853,0,19.4,19.4,0,0,0,0,26.073Z"/><path d="M314,168h38a8,8,0,0,1,6.247,3L384,203.194,409.753,171A8,8,0,0,1,416,168h38a10,10,0,0,0,10-10V42a10,10,0,0,0-10-10H314a10,10,0,0,0-10,10V158A10,10,0,0,0,314,168ZM329.281,58.249a31.3,31.3,0,0,1,46.073-.177l8.631,8.244,8.665-8.25a31.3,31.3,0,0,1,46.069.183c12.337,13.21,12.337,34.7,0,47.915l-48.927,51.354a8,8,0,0,1-11.584,0l-48.872-51.3C316.944,92.954,316.944,71.459,329.281,58.249Z"/></g></g></svg>
